HIERARCHY
ROOT hip
{
  OFFSET 0 0 0
  CHANNELS 6 Xposition Yposition Zposition Zrotation Yrotation Xrotation
  JOINT abdomen
  {
    OFFSET 0 20.6881 -0.73152
    CHANNELS 3 Zrotation Xrotation Yrotation
    JOINT chest
    {
      OFFSET 0 11.7043 -0.48768
      CHANNELS 3 Zrotation Xrotation Yrotation
      JOINT neck
      {
        OFFSET 0 22.1894 -2.19456
        CHANNELS 3 Zrotation Xrotation Yrotation
        JOINT head
        {
          OFFSET -0.24384 7.07133 1.2192
          CHANNELS 3 Zrotation Xrotation Yrotation
          JOINT leftEye
          {
            OFFSET 4.14528 8.04674 8.04672
            CHANNELS 3 Zrotation Xrotation Yrotation
            End Site
            {
              OFFSET 1 0 0
            }
          }
          JOINT rightEye
          {
            OFFSET -3.6576 8.04674 8.04672
            CHANNELS 3 Zrotation Xrotation Yrotation
            End Site
            {
              OFFSET 1 0 0
            }
          }
        }
      }
      JOINT rCollar
      {
        OFFSET -2.68224 19.2634 -4.8768
        CHANNELS 3 Zrotation Xrotation Yrotation
        JOINT rShldr
        {
          OFFSET -8.77824 -1.95073 1.46304
          CHANNELS 3 Zrotation Xrotation Yrotation
          JOINT rForeArm
          {
            OFFSET -28.1742 -1.7115 0.48768
            CHANNELS 3 Zrotation Xrotation Yrotation
            JOINT rHand
            {
              OFFSET -22.5879 0.773209 7.07136
              CHANNELS 3 Zrotation Xrotation Yrotation
              JOINT rThumb1
              {
                OFFSET -1.2192 -0.487915 3.41376
                CHANNELS 3 Zrotation Xrotation Yrotation
                JOINT rThumb2
                {
                  OFFSET -3.37035 -0.52449 3.41376
                  CHANNELS 3 Zrotation Xrotation Yrotation
                  End Site
                  {
                    OFFSET -1.78271 -1.18214 1.43049
                  }
                }
              }
              JOINT rIndex1
              {
                OFFSET -7.75947 0.938293 5.60832
                CHANNELS 3 Zrotation Xrotation Yrotation
                JOINT rIndex2
                {
                  OFFSET -2.54057 -0.884171 1.56538
                  CHANNELS 3 Zrotation Xrotation Yrotation
                  End Site
                  {
                    OFFSET -1.62519 -0.234802 1.16502
                  }
                }
              }
              JOINT rMid1
              {
                OFFSET -8.24714 1.18213 3.41376
                CHANNELS 3 Zrotation Xrotation Yrotation
                JOINT rMid2
                {
                  OFFSET -3.10165 -0.590103 1.0647
                  CHANNELS 3 Zrotation Xrotation Yrotation
                  End Site
                  {
                    OFFSET -2.48547 -0.328903 0.83742
                  }
                }
              }
              JOINT rRing1
              {
                OFFSET -8.82822 0.546677 1.51678
                CHANNELS 3 Zrotation Xrotation Yrotation
                JOINT rRing2
                {
                  OFFSET -2.60934 -0.819778 -0.0198488
                  CHANNELS 3 Zrotation Xrotation Yrotation
                  End Site
                  {
                    OFFSET -2.33842 -0.294052 0.168128
                  }
                }
              }
              JOINT rPinky1
              {
                OFFSET -8.27202 -0.0477905 -0.4584
                CHANNELS 3 Zrotation Xrotation Yrotation
                JOINT rPinky2
                {
                  OFFSET -1.82734 -0.647385 -0.700984
                  CHANNELS 3 Zrotation Xrotation Yrotation
                  End Site
                  {
                    OFFSET -1.69225 -0.51767 -0.607171
                  }
                }
              }
            }
          }
        }
      }
      JOINT lCollar
      {
        OFFSET 2.68224 19.2634 -4.8768
        CHANNELS 3 Zrotation Xrotation Yrotation
        JOINT lShldr
        {
          OFFSET 8.77824 -1.95073 1.46304
          CHANNELS 3 Zrotation Xrotation Yrotation
          JOINT lForeArm
          {
            OFFSET 28.1742 -1.7115 0.48768
            CHANNELS 3 Zrotation Xrotation Yrotation
            JOINT lHand
            {
              OFFSET 22.5879 0.773209 7.07136
              CHANNELS 3 Zrotation Xrotation Yrotation
              JOINT lThumb1
              {
                OFFSET 1.2192 -0.487915 3.41376
                CHANNELS 3 Zrotation Xrotation Yrotation
                JOINT lThumb2
                {
                  OFFSET 3.37035 -0.52449 3.41376
                  CHANNELS 3 Zrotation Xrotation Yrotation
                  End Site
                  {
                    OFFSET 1.78271 -1.18214 1.43049
                  }
                }
              }
              JOINT lIndex1
              {
                OFFSET 7.75947 0.938293 5.60832
                CHANNELS 3 Zrotation Xrotation Yrotation
                JOINT lIndex2
                {
                  OFFSET 2.54057 -0.884171 1.56538
                  CHANNELS 3 Zrotation Xrotation Yrotation
                  End Site
                  {
                    OFFSET 1.62519 -0.234802 1.16502
                  }
                }
              }
              JOINT lMid1
              {
                OFFSET 8.24714 1.18213 3.41376
                CHANNELS 3 Zrotation Xrotation Yrotation
                JOINT lMid2
                {
                  OFFSET 3.10165 -0.590103 1.0647
                  CHANNELS 3 Zrotation Xrotation Yrotation
                  End Site
                  {
                    OFFSET 2.48547 -0.328903 0.83742
                  }
                }
              }
              JOINT lRing1
              {
                OFFSET 8.82822 0.546677 1.51678
                CHANNELS 3 Zrotation Xrotation Yrotation
                JOINT lRing2
                {
                  OFFSET 2.60934 -0.819778 -0.0198488
                  CHANNELS 3 Zrotation Xrotation Yrotation
                  End Site
                  {
                    OFFSET 2.33842 -0.294052 0.168128
                  }
                }
              }
              JOINT lPinky1
              {
                OFFSET 8.27202 -0.0477905 -0.4584
                CHANNELS 3 Zrotation Xrotation Yrotation
                JOINT lPinky2
                {
                  OFFSET 1.82734 -0.647385 -0.700984
                  CHANNELS 3 Zrotation Xrotation Yrotation
                  End Site
                  {
                    OFFSET 1.69225 -0.51767 -0.607171
                  }
                }
              }
            }
          }
        }
      }
    }
  }
  JOINT rButtock
  {
    OFFSET -8.77824 4.35084 1.2192
    CHANNELS 3 Zrotation Xrotation Yrotation
    JOINT rThigh
    {
      OFFSET 0 -1.70687 -2.19456
      CHANNELS 3 Zrotation Xrotation Yrotation
      JOINT rShin
      {
        OFFSET 0 -36.8199 0.73152
        CHANNELS 3 Zrotation Xrotation Yrotation
        JOINT rFoot
        {
          OFFSET 0.73152 -45.1104 -5.12064
          CHANNELS 3 Zrotation Xrotation Yrotation
          End Site
          {
            OFFSET -1.1221 -3.69964 12.103
          }
        }
      }
    }
  }
  JOINT lButtock
  {
    OFFSET 8.77824 4.35084 1.2192
    CHANNELS 3 Zrotation Xrotation Yrotation
    JOINT lThigh
    {
      OFFSET 0 -1.70687 -2.19456
      CHANNELS 3 Zrotation Xrotation Yrotation
      JOINT lShin
      {
        OFFSET 0 -36.8199 0.73152
        CHANNELS 3 Zrotation Xrotation Yrotation
        JOINT lFoot
        {
          OFFSET -0.73152 -45.1104 -5.12064
          CHANNELS 3 Zrotation Xrotation Yrotation
          End Site
          {
            OFFSET 1.1221 -3.69964 12.103
          }
        }
      }
    }
  }
}
MOTION
Frames:	6
Frame Time:	0.03333
46.3405 55.6304 43.6079 -2.476193 -7.540615 -5.974328 -4.214279 11.78052 -170.691616 1.848569 7.274329 -168.780323 -11.637297 20.814229 -62.528169 31.944186 9.405433 88.896258 -0.001401 0.0 -0.002283 0.004725 0.0 0.000813 -0.273393 1.606801 0.360843 -15.766655 83.174748 85.077163 -148.488406 18.561765 17.644438 -154.693255 8.157605 143.421168 -159.653895 2.601015 88.799562 22.114258 -56.141139 23.782347 -145.522233 -6.584736 118.766785 -79.883203 57.280434 61.128954 -125.644605 49.83977 115.273489 -172.06708 -31.385633 143.786071 -145.118382 0.268114 -179.21178 11.905517 29.602477 -5.640232 -157.329176 57.246301 -150.512691 -154.441583 31.23217 -145.663119 -0.163173 -0.990081 0.218166 -41.864374 34.371548 -39.903721 -0.986358 -62.519509 -89.231285 9.555418 47.900879 -5.130195 178.928082 -16.453486 -89.421472 -148.391902 -48.822341 -103.000733 90.225434 41.073643 -75.797099 179.07878 -33.515191 -112.406445 -68.987461 -80.152781 -40.582376 -80.707692 -77.830595 -52.448236 72.757379 -72.144414 89.771647 -13.90057 29.735805 0.547933 13.277183 -25.410685 12.631683 137.318293 -13.718612 135.443462 -0.0056 0.000717 -0.0056 -27.018864 -37.320038 60.677705 92.192946 -8.255466 0.019882 -114.957611 -52.512431 178.871095 -179.985503 75.750402 -0.009919 -138.546759 16.630084 68.214759 64.871884 13.862633 -102.191004 98.878268 6.42345 -35.271737
46.869499999999995 55.367200000000004 43.9015 -2.972935 -7.429941 -5.495325 -4.213876 15.926186 -0.0 0.07777 -12.451793 21.063957 -11.753936 25.221572 -87.864443 29.430572 21.692625 111.946232 -0.003018 -0.0 0.00011 0.002693 -0.0 -0.000304 -155.649268 -4.469621 162.039979 -50.42196 10.678135 7.515102 1.5823 19.489492 -145.486117 -137.179093 33.893364 123.763627 55.51749 -43.151256 15.431613 -11.87459 -22.170797 -23.416978 -140.684673 1.505556 116.182599 -162.982732 -14.861533 119.09225 -0.057489 0.167906 0.032042 80.538987 -78.003422 52.074454 -145.121543 1.976685 -179.748292 10.068332 -0.022686 -8.996072 12.63278 42.934057 10.53201 -147.000574 8.155794 -142.505046 44.040022 64.18705 -46.710384 96.423205 22.88222 -83.184549 10.675173 -35.985751 132.194046 -139.453499 -51.699024 -126.535742 -2.012692 -1.996541 0.275615 -18.495185 -31.369035 15.056702 -5.922182 -10.174319 2.969009 -4.401269 11.546646 -1.750095 152.827284 14.793655 -138.515508 3.16031 17.07654 -3.618869 -0.00073 0.022725 -0.00657 -10.239442 1.23082 -0.0893 -7.794695 24.328419 -6.893413 147.506369 10.701578 143.34895 0.001816 0.000378 0.000908 -26.270172 -36.543654 -0.0 106.964135 61.127461 109.959938 12.72372 53.58563 119.864783 -0.00091 0.000201 0.00117 57.529212 -36.415976 44.063923 -43.893977 70.23782 -84.168196 103.57039 -20.454822 -162.845001
47.3034 55.235 44.0108 -3.817294 -6.782017 -5.098532 -3.59693 15.862141 12.952054 -2.38579 -12.514119 7.566062 3.62699 32.414999 166.236688 -18.19315 32.569948 -133.779066 0.004036 -0.0 -0.00458 -0.00141 -0.0 0.000355 -155.460597 -3.227816 161.777342 -160.786324 76.450155 114.741023 -14.052105 -53.831717 -161.175033 -145.333635 24.823963 132.687578 -171.705994 -9.388512 89.9485 0.963789 -54.79012 8.659176 -19.170593 24.114142 13.381987 151.621583 -54.292416 90.248407 -10.975373 25.789823 7.64084 -88.633201 64.061259 80.456051 -74.841282 72.961268 92.827878 -73.497805 -82.413315 -90.593185 -3.812748 -9.064267 -3.56082 -21.230193 -39.043719 -22.197777 0.048448 0.292487 -0.064583 82.022197 29.281299 -136.686271 -179.493227 -18.340369 93.049333 12.099903 52.217843 -6.16104 7.758476 7.439024 -1.68272 118.267612 -11.903042 -105.416082 169.12345 -47.19442 -121.484482 -61.122322 -61.631219 -10.066721 160.573425 -6.359085 -143.199077 -2.960424 0.761106 -0.460749 81.434192 -71.921395 98.871053 -14.64877 14.814843 2.923251 167.311423 79.513646 148.594858 24.524359 -39.361525 24.732033 179.994297 75.750079 0.003902 156.645135 33.565246 -50.596286 -87.776937 45.793923 149.916013 -30.386884 -18.558965 -86.034886 0.003178 0.001057 0.003178 59.280186 -36.940229 70.347444 27.221842 70.045765 -117.718299 3.952806 -14.021184 97.396446
47.6352 55.2159 44.0647 -4.331591 -5.960396 -4.663564 -2.342898 16.099135 0.556182 -0.238555 -13.023576 19.513029 -6.833152 15.131777 -21.28952 24.349447 -11.30735 50.572176 0.00278 -0.0 -0.001364 -0.002918 0.0 -0.000791 -129.706356 55.102085 133.552739 -8.072996 -13.599572 57.909814 -47.982338 -75.670014 62.564143 -19.856769 -65.909696 -22.709868 -168.697951 -6.378679 89.898966 36.898892 -64.633885 30.277424 -46.207521 39.653352 36.318311 103.810737 -63.864245 53.598743 -160.672716 -6.667558 143.246539 -166.85816 -15.599661 143.763747 -145.111864 -0.668497 -178.917627 11.681227 21.69394 -6.505028 -149.551063 27.153368 -145.545558 -147.865439 11.753615 -141.744242 33.834693 -85.665875 55.252238 -73.103403 32.368387 42.959759 -174.942366 11.437429 -57.072187 -155.145889 -34.487777 -140.441941 78.031242 38.688817 -42.412313 92.30058 -5.108634 -69.050217 152.106262 -18.556126 -121.368117 4.924474 28.154032 1.869009 4.680902 12.536562 -2.931372 -168.068972 -64.098995 -133.227049 0.021638 -1.726075 0.54229 76.860536 78.807939 -90.410679 152.19854 37.329876 147.584136 128.512519 -27.99634 125.487229 -0.00343 -0.001552 -0.001715 -26.239808 -38.487318 141.619084 105.814308 -75.497092 -155.254216 -78.607321 -71.442488 2.62051 179.987719 75.749691 0.008402 -135.931296 12.006745 102.128502 78.061872 -21.936019 21.098885 -119.271294 -48.069562 132.57741
47.8549 55.3558 44.127300000000005 -4.50436 -5.442589 -4.334542 -1.978863 16.356168 -0.0 -0.193465 -13.185378 19.855119 7.848684 18.09976 65.736926 -20.652472 -12.520197 -42.490084 -0.003462 0.0 -0.000846 -0.003462 0.0 -0.000846 -33.849149 -85.664982 -55.266568 104.204566 47.5571 -93.522953 -0.43994 42.989212 115.732311 -17.628609 -54.192165 -15.678243 -10.204055 9.661795 2.405456 20.173129 -23.916731 -6.560885 -139.795815 2.901805 115.658439 -173.699142 -34.450619 117.135738 68.985801 -80.153351 40.579995 91.964586 -78.39205 63.166603 -31.711954 -66.107833 -46.286622 7.656215 -62.396066 -16.270726 39.987521 85.64109 -0.897619 0.466118 -2.349433 -1.789294 -2.457199 -18.187041 3.662854 123.420274 -45.699331 -155.321636 17.570013 -56.937934 139.769636 -137.183538 -52.729282 -124.953887 176.296328 -13.91938 -89.719163 44.338551 -17.566511 -4.994457 151.352022 -17.158221 -121.134332 -95.744986 -70.678533 -42.633693 -0.047847 -0.138546 0.02672 163.254787 -4.709991 -143.346113 145.111966 -0.62756 178.932567 -12.116503 35.174043 5.013984 157.33122 57.24681 150.509547 162.649821 55.686127 147.237525 -0.000331 0.000363 0.000426 -24.690671 -38.869176 -180.0 -97.172396 -53.582994 -171.201375 -166.843351 -14.773147 144.390999 -179.997308 75.749278 -0.002777 -134.898057 10.741711 -180.0 0.092321 -81.461157 28.484693 114.283968 3.697436 -170.056584
47.9938 55.6237 44.1564 -4.871449 -5.014884 -4.040366 -1.285234 11.804641 180.0 0.362112 8.614333 -160.109307 -7.028054 32.301308 -134.98754 15.097486 39.722155 158.959605 0.001225 -0.0 -2.7e-05 -0.00426 0.0 -0.000158 3.268218 -26.755775 -5.2429 60.62449 11.689612 -18.857798 -17.80317 46.586941 129.684535 -20.790295 -67.859379 -24.387177 6.463208 -6.452864 -0.635593 -130.792026 -24.397496 117.315736 -19.170274 24.114821 13.380375 -0.53459 12.602634 1.847842 -36.035491 51.723988 29.830309 -25.149933 49.187421 20.838938 -72.967022 -72.141644 -89.990806 -149.739443 -28.367763 -179.68877 -29.628351 -40.969513 -28.616255 -8.136364 -23.957395 -10.51868 -4.261355 -46.008952 8.908558 104.854698 -26.588048 174.105411 24.271914 -17.001046 130.041475 -114.981823 -61.712268 -104.025444 1.583603 1.556313 -0.263451 -31.4521 -50.188031 16.784681 2.686087 4.226738 -1.584106 172.172732 -27.277772 -108.459962 6.646712 17.108781 -4.326005 163.470286 -5.567397 -143.425358 -0.000275 0.146223 -0.046075 -10.276649 0.61952 -0.010763 144.785359 10.846324 141.475586 -46.444867 79.973824 10.108852 0.002514 -0.000176 0.001257 -23.482371 -36.456929 -14.860352 120.606007 77.067381 93.705734 -158.254724 44.492084 -104.969579 0.025142 -0.000172 0.018857 62.432024 -39.344971 -180.0 74.910372 -37.656187 6.095643 -143.001601 -40.281425 104.14422
